<svg width="10" height="20" viewBox="0 0 10 20" fill="none" xmlns="http://www.w3.org/2000/svg">
<path d="M9.99201 16.9171C9.79831 16.9231 9.6096 16.9752 9.43987 17.0682L5.00072 19.3871C4.45756 19.6464 3.80756 19.4452 3.50303 18.9258C3.39021 18.7136 3.34927 18.4704 3.38721 18.2322L4.27384 13.3032C4.33375 12.9449 4.21394 12.5806 3.95334 12.3284L0.327937 8.81848C-0.102398 8.39713 -0.110386 7.70556 0.310963 7.27421C0.316954 7.26821 0.321947 7.2632 0.327937 7.2582C0.499672 7.08806 0.72133 6.97597 0.959961 6.94094L5.96523 6.20433C6.32767 6.1583 6.64219 5.93211 6.80194 5.60384L8.97758 1.06312C9.18426 0.696818 9.58065 0.478639 10 0.501658C9.99201 0.798902 9.99201 16.715 9.99201 16.9171Z" fill="#FFC046"/>
</svg>
